<?xml version="1.0" encoding="UTF-8"?>
<svg xmlns="http://www.w3.org/2000/svg" xmlns:xlink="http://www.w3.org/1999/xlink" width="200px" height="200px" viewBox="0 0 200 200" version="1.1">
<g id="surface1">
<path style=" stroke:none;fill-rule:nonzero;fill:rgb(0%,0%,0%);fill-opacity:1;" d="M 141.164062 94.355469 C 146.011719 91.164062 150.367188 87.914062 155.121094 85.246094 C 158.464844 83.894531 160.09375 80.09375 158.742188 76.75 C 158.035156 77.179688 157.332031 77.546875 156.625 78.007812 L 103.25 113.527344 C 99.816406 115.796875 98.621094 115.796875 95.121094 113.527344 L 42.546875 78.496094 L 39.96875 76.808594 C 38.621094 80.429688 39.234375 82.421875 42.179688 84.355469 L 57.179688 94.171875 C 56.75 94.570312 56.320312 94.90625 55.828125 95.246094 C 51.441406 98.160156 47.023438 101.136719 42.667969 104.019531 C 40.859375 105.398438 38.375 105.519531 36.441406 104.324219 C 32.851562 102.363281 29.265625 100.398438 25.644531 98.4375 C 23.589844 97.453125 22.363281 95.308594 22.515625 93.035156 C 22.515625 84.050781 22.515625 75.0625 22.515625 66.074219 C 22.363281 63.804688 23.648438 61.6875 25.707031 60.734375 C 29.234375 58.957031 32.699219 57.117188 36.164062 55.214844 C 38.28125 53.863281 41.042969 54.019531 43.007812 55.613281 C 61.011719 67.792969 79.078125 79.785156 97.085938 91.871094 C 98.3125 92.976562 100.152344 92.976562 101.378906 91.871094 C 119.234375 79.878906 137.179688 68.007812 155.03125 56.011719 C 157.300781 54.203125 160.460938 54.050781 162.882812 55.644531 C 166.074219 57.605469 169.386719 59.171875 172.699219 60.859375 C 174.785156 61.777344 176.074219 63.894531 175.949219 66.164062 L 175.949219 93.375 C 176.042969 95.550781 174.816406 97.605469 172.851562 98.527344 C 169.171875 100.492188 165.492188 102.453125 161.839844 104.417969 C 160.214844 105.492188 158.097656 105.492188 156.441406 104.417969 C 151.472656 101.257812 146.503906 97.914062 141.164062 94.355469 Z M 131.902344 65.335938 C 126.351562 69.050781 121.074219 72.636719 115.707031 76.074219 C 114.878906 76.320312 113.988281 76.195312 113.28125 75.707031 C 109.109375 73.035156 104.9375 70.277344 101.011719 67.453125 C 100.0625 66.59375 98.621094 66.59375 97.667969 67.453125 C 93.4375 70.277344 89.234375 73.128906 84.96875 75.859375 C 84.292969 76.257812 83.464844 76.320312 82.761719 76.042969 C 77.421875 72.605469 72.148438 69.019531 66.625 65.335938 C 67.207031 64.878906 67.578125 64.539062 68.007812 64.265625 C 77.332031 58.066406 86.625 51.871094 95.921875 45.675781 C 97.792969 44.234375 100.398438 44.203125 102.332031 45.582031 C 111.808594 51.839844 121.257812 58.097656 130.675781 64.386719 C 131.011719 64.632812 131.289062 64.90625 131.902344 65.335938 Z M 23.34375 128.742188 L 23.34375 152.515625 L 19.785156 152.515625 L 19.785156 133.957031 L 16.042969 152.515625 L 14.078125 152.515625 L 10.367188 133.957031 L 10.367188 152.515625 L 6.6875 152.515625 L 6.6875 128.742188 L 12.085938 128.742188 L 15 142.636719 L 17.882812 128.742188 Z M 45.980469 152.515625 L 42.054688 152.515625 L 46.441406 128.742188 L 51.503906 128.742188 L 55.796875 152.515625 L 51.871094 152.515625 L 51.136719 147.238281 L 46.71875 147.238281 Z M 47.300781 143.710938 L 50.582031 143.710938 L 48.957031 133.496094 Z M 81.625 152.636719 L 77.546875 152.636719 L 77.546875 128.863281 L 83.3125 128.863281 C 85.183594 128.742188 87.023438 129.292969 88.464844 130.492188 C 89.785156 131.964844 90.429688 133.925781 90.214844 135.890625 C 90.214844 136.71875 90.152344 137.546875 89.96875 138.375 C 89.816406 138.988281 89.601562 139.570312 89.292969 140.09375 C 88.863281 140.890625 88.160156 141.535156 87.332031 141.871094 L 90.796875 152.636719 L 86.59375 152.636719 L 83.710938 142.820312 C 83.375 142.851562 83.066406 142.851562 82.730469 142.820312 L 81.59375 142.820312 Z M 81.625 139.539062 L 83.066406 139.539062 C 83.527344 139.539062 84.019531 139.480469 84.449219 139.386719 C 84.816406 139.292969 85.152344 139.078125 85.398438 138.804688 C 85.644531 138.464844 85.828125 138.066406 85.921875 137.667969 C 86.042969 137.085938 86.105469 136.503906 86.074219 135.890625 C 86.195312 134.878906 85.949219 133.863281 85.398438 133.007812 C 84.753906 132.421875 83.925781 132.148438 83.066406 132.238281 L 81.625 132.238281 Z M 113.191406 152.515625 L 113.191406 128.742188 L 117.269531 128.742188 L 117.269531 148.894531 L 123.679688 148.894531 L 123.679688 152.453125 Z M 145.949219 152.515625 L 145.949219 128.742188 L 156.902344 128.742188 L 156.902344 132.300781 L 150.121094 132.300781 L 150.121094 138.4375 L 155.398438 138.4375 L 155.398438 141.992188 L 150.121094 141.992188 L 150.121094 148.894531 L 157.421875 148.894531 L 157.421875 152.453125 Z M 185.890625 152.515625 L 181.808594 152.515625 L 181.808594 142.699219 L 176.871094 128.742188 L 180.980469 128.742188 L 183.863281 137.792969 L 186.59375 128.742188 L 190.734375 128.742188 L 185.890625 142.636719 Z M 185.890625 152.515625 "/>
</g>
</svg>
